<?xml version="1.0" encoding="utf-8"?>
<!-- Generator: Adobe Illustrator 21.1.0, SVG Export Plug-In . SVG Version: 6.00 Build 0)  -->
<svg version="1.1" id="Calque_1" xmlns="http://www.w3.org/2000/svg" xmlns:xlink="http://www.w3.org/1999/xlink" x="0px" y="0px"
	 viewBox="0 0 2000 118.5" style="enable-background:new 0 0 2000 118.5;" xml:space="preserve">
<style type="text/css">
	.st0{fill:#F4F6F8;}
	.st1{opacity:0.1;fill:#F4F6F8;enable-background:new    ;}
	.st2{opacity:0.4;fill:#F4F6F8;enable-background:new    ;}
	.st3{opacity:0.17;fill:#F4F6F8;enable-background:new    ;}
</style>
<g id="V0">
	<path class="st0" d="M0,14.9c24.9-2.2,53.6-3.5,86.9-3.5c40.2,0,77.3,2.6,113.4,6.8c54.6-5.4,117.4-8.8,191.1-8.8
		c263.5-0.5,439.4,34,625,55.8c184-21.9,359.3-55.9,620.8-55.3c71.6,0,133,3.2,186.5,8.4c37.5-4.5,76.1-7.3,117.9-7.3
		c21.3,0,40.7,0.5,58.4,1.5v-37.3H0V14.9z"/>
</g>
<g id="V3">
	<path class="st1" d="M-148.4,120.2c-2.3-2.1,5-4.6,27.5-7.6c104.2-13.5,228.8-36.8,502.4-36.8c384.5-0.4,582.6,36.8,896.3,37
		c313.6,0.2,442.5-36.3,654-36.3c117.5,0,177,8,218.8,17c7.8,1.5,10.5,3.3,9.3,5.2c10.8,5.1,20.7,12.1,31.7,16.8
		c4.4,1.9,9.2,2.8,13.7,4.6h117.6v-391.5H-305v391.5h156.6V120.2z"/>
</g>
<g id="V2">
	<path class="st2" d="M-141.2,52.1c0.9-2.5,3.8-4.9,9.3-7c41.8-18,101.3-33.8,218.8-33.8c211.5-0.1,340.4,72.2,654,71.8
		c313.6-0.4,511.7-74.2,896.3-73.4c265.6,0.2,390.8,43.5,493.2,70.6v-233.2H-241v205C-241,52.1-141.2,52.1-141.2,52.1z"/>
</g>
<g id="V1">
	<path class="st0" d="M2001.9,42.5"/>
	<path class="st0" d="M1.9,82.8"/>
	<path class="st3" d="M1287.6,82.7c313.6,0.4,442.5-72,654-71.8c21.3,0,40.7,0.5,58.4,1.5v-37.2H0v77.5
		c88.6-22,205.6-43.2,391.3-43.3C775.9,8.5,974,82.3,1287.6,82.7z"/>
</g>
</svg>
