<?xml version="1.0" encoding="utf-8"?>
<!-- Generator: Adobe Illustrator 21.1.0, SVG Export Plug-In . SVG Version: 6.00 Build 0)  -->
<svg version="1.1" id="Calque_1" xmlns="http://www.w3.org/2000/svg" xmlns:xlink="http://www.w3.org/1999/xlink" x="0px" y="0px"
	 viewBox="0 0 2000 118.5" style="enable-background:new 0 0 2000 118.5;" xml:space="preserve">
<style type="text/css">
	.st0{fill:#FFFFFF;}
	.st1{fill:#0C00FF;}
	.st2{opacity:0.17;fill:#FFFFFF;enable-background:new    ;}
	.st3{opacity:0.4;fill:#FFFFFF;enable-background:new    ;}
	.st4{opacity:0.1;fill:#FFFFFF;enable-background:new    ;}
</style>
<g id="V0">
	<path class="st0" d="M2002,105.3c-24.9,2.2-55.6,3.5-88.9,3.5c-40.2,0-77.3-2.6-113.4-6.8c-54.6,5.4-117.4,8.8-191.1,8.8
		c-263.5,0.5-439.4-34-625-55.8c-184,21.9-359.3,55.9-620.8,55.3c-71.6,0-133-3.2-186.5-8.4c-37.5,4.5-76.1,7.3-117.9,7.3
		c-21.3,0-42.7-0.5-60.4-1.5V145h2004V105.3z"/>
</g>
<g id="V1">
	<path class="st1" d="M2001.9,67.5"/>
	<path class="st1" d="M-0.1,107.8"/>
	<path class="st2" d="M712.4,37.5c-313.6-0.4-442.5,72-654,71.8c-21.3,0-42.7-0.5-60.4-1.5V145h2004l-2-77.5
		c-88.6,22-205.6,43.2-391.3,43.3C1224.2,111.7,1026.1,37.9,712.4,37.5z"/>
</g>
<g id="V2">
	<path class="st3" d="M2141.2,68.1c-0.9,2.5-3.8,4.9-9.3,7c-41.8,18-96,33.8-218.8,33.8c-211.5,0.1-340.4-72.2-654-71.8
		c-313.6,0.4-511.7,74.2-896.3,73.4C97.2,110.2-27.9,66.9-130.4,39.8V273H2241V68.1H2141.2z"/>
</g>
<g id="V3">
	<path class="st4" d="M2148.5,0c2.3,2.1-5,4.6-27.5,7.6c-104.2,13.5-228.8,36.8-502.4,36.8c-384.5,0.4-582.6-36.8-896.3-37
		c-313.6-0.2-442.5,36.3-654,36.3c-117.5,0-177-8-218.8-17c-7.8-1.5-10.5-3.3-9.3-5.2c-10.8-5.1-20.7-12.1-31.7-16.8
		c-4.4-1.9-9.2-2.8-13.7-4.6h-117.6v391.5H2305V0H2148.5z"/>
</g>
</svg>
